<?xml version="1.0" encoding="UTF-8" standalone="no"?>
<svg
   xmlns:dc="http://purl.org/dc/elements/1.1/"
   xmlns:cc="http://creativecommons.org/ns#"
   xmlns:rdf="http://www.w3.org/1999/02/22-rdf-syntax-ns#"
   xmlns:svg="http://www.w3.org/2000/svg"
   xmlns="http://www.w3.org/2000/svg"
   xmlns:sodipodi="http://sodipodi.sourceforge.net/DTD/sodipodi-0.dtd"
   xmlns:inkscape="http://www.inkscape.org/namespaces/inkscape"
   inkscape:export-ydpi="1200"
   inkscape:export-xdpi="1200"
   inkscape:export-filename="/Users/faiello/Desktop/Temp/beemesh.png"
   viewBox="0 0 64 64"
   enable-background="new 0 0 64 64"
   version="1.1"
   id="svg58"
   sodipodi:docname="beemesh.svg"
   inkscape:version="1.0 (4035a4f, 2020-05-01)">
  <metadata
     id="metadata64">
    <rdf:RDF>
      <cc:Work
         rdf:about="">
        <dc:format>image/svg+xml</dc:format>
        <dc:type
           rdf:resource="http://purl.org/dc/dcmitype/StillImage" />
        <dc:title />
      </cc:Work>
    </rdf:RDF>
  </metadata>
  <defs
     id="defs62">
    <inkscape:path-effect
       effect="mirror_symmetry"
       start_point="32.000003,31.907776"
       end_point="32.000003,59.611435"
       center_point="32.000003,45.759606"
       id="path-effect1061"
       is_visible="true"
       lpeversion="1"
       mode="free"
       discard_orig_path="false"
       fuse_paths="false"
       oposite_fuse="false"
       split_items="false" />
    <inkscape:path-effect
       split_items="false"
       oposite_fuse="false"
       fuse_paths="false"
       discard_orig_path="false"
       mode="free"
       lpeversion="1"
       is_visible="true"
       id="path-effect1057"
       center_point="32.000003,45.759606"
       end_point="32.000003,59.611435"
       start_point="32.000003,31.907776"
       effect="mirror_symmetry" />
    <inkscape:perspective
       id="perspective1032"
       inkscape:persp3d-origin="32 : 21.333333 : 1"
       inkscape:vp_z="64 : 32 : 1"
       inkscape:vp_y="0 : 1000 : 0"
       inkscape:vp_x="0 : 32 : 1"
       sodipodi:type="inkscape:persp3d" />
    <inkscape:path-effect
       split_items="false"
       oposite_fuse="false"
       fuse_paths="false"
       discard_orig_path="false"
       mode="free"
       lpeversion="1"
       is_visible="true"
       id="path-effect1028"
       center_point="32,25"
       end_point="32,40"
       start_point="32,9.9999999"
       effect="mirror_symmetry" />
    <inkscape:path-effect
       split_items="false"
       oposite_fuse="false"
       fuse_paths="false"
       discard_orig_path="false"
       mode="free"
       lpeversion="1"
       is_visible="true"
       id="path-effect1026"
       center_point="32,41.2"
       end_point="32,47.7"
       start_point="32,34.7"
       effect="mirror_symmetry" />
    <inkscape:path-effect
       split_items="false"
       oposite_fuse="false"
       fuse_paths="false"
       discard_orig_path="false"
       mode="free"
       lpeversion="1"
       is_visible="true"
       id="path-effect1022"
       center_point="41,40.25"
       end_point="41,42"
       start_point="41,38.5"
       effect="mirror_symmetry" />
  </defs>
  <sodipodi:namedview
     inkscape:lockguides="true"
     inkscape:snap-bbox="true"
     inkscape:snap-smooth-nodes="true"
     inkscape:snap-intersection-paths="true"
     inkscape:object-paths="true"
     inkscape:document-rotation="0"
     pagecolor="#ffffff"
     bordercolor="#666666"
     borderopacity="1"
     objecttolerance="10"
     gridtolerance="10"
     guidetolerance="10"
     inkscape:pageopacity="0"
     inkscape:pageshadow="2"
     inkscape:window-width="1680"
     inkscape:window-height="1050"
     id="namedview60"
     showgrid="false"
     showguides="true"
     inkscape:guide-bbox="true"
     inkscape:zoom="6.7842567"
     inkscape:cx="18.871992"
     inkscape:cy="41.138753"
     inkscape:window-x="0"
     inkscape:window-y="0"
     inkscape:window-maximized="0"
     inkscape:current-layer="svg58">
    <sodipodi:guide
       inkscape:locked="true"
       position="-11.425384,63.732218"
       orientation="0,-1"
       id="guide66" />
    <sodipodi:guide
       inkscape:color="rgb(0,0,255)"
       inkscape:locked="true"
       inkscape:label=""
       id="guide1055"
       orientation="-1,0"
       position="32,-3.5933911" />
  </sodipodi:namedview>
  <path
     inkscape:original-d="M 6.4942513,10.829337 C 9.847415,7.2259953 21.68271,16.183039 25.923475,21.988423 30.164242,27.793807 32,40 32,40 32,40 13.38145,34.242472 9.135835,28.440573 3.8650533,21.237719 3.2397103,14.432678 6.4942513,10.829337 Z"
     inkscape:path-effect="#path-effect1028"
     sodipodi:nodetypes="cscsc"
     d="M 6.4942513,10.829337 C 9.847415,7.2259953 21.68271,16.183039 25.923475,21.988423 30.164242,27.793807 32,40 32,40 32,40 13.38145,34.242472 9.135835,28.440573 3.8650533,21.237719 3.2397103,14.432678 6.4942513,10.829337 Z m 51.0114977,0 C 54.152585,7.2259953 42.31729,16.183039 38.076525,21.988423 33.835758,27.793807 32,40 32,40 32,40 50.61855,34.242472 54.864165,28.440573 60.134947,21.237719 60.76029,14.432678 57.505749,10.829337 Z"
     id="path12-3-4"
     style="opacity:0.6;fill:#f4e3d7;stroke-width:0.993553"
     transform="matrix(1.0181818,0,0,1,-0.58181821,0)" />
  <path
     transform="translate(0,-0.0349996)"
     inkscape:original-d="M 7.3245091,41.562429 C 3.6757851,26.981968 32,40.168541 32,40.168541 c 0,0 -21.026767,15.974349 -24.6754909,1.393888 z"
     inkscape:path-effect="#path-effect1026"
     sodipodi:nodetypes="zcz"
     d="M 7.3245091,41.562429 C 3.6757851,26.981968 32,40.168541 32,40.168541 c 0,0 -21.026767,15.974349 -24.6754909,1.393888 z m 49.3509819,0 C 60.324215,26.981968 32,40.168541 32,40.168541 c 0,0 21.026767,15.974349 24.675491,1.393888 z"
     id="path16-7-4"
     style="opacity:0.6;fill:#f4e3d7;stroke-width:0.99695" />
  <path
     transform="matrix(0.99458877,0,0,1.0106968,0.17315635,-0.24908723)"
     inkscape:path-effect="#path-effect1057"
     inkscape:original-d="m 32.000003,59.611435 c -6.27059,-0.03782 -9.924167,-7.99703 -10.99281,-19.194188 -1.068643,-11.197158 10.99281,-8.123313 10.99281,-8.123313"
     sodipodi:nodetypes="czc"
     style="fill:#502d16;stroke-width:0.996406"
     d="m 32.000003,59.611435 c -6.27059,-0.03782 -9.924167,-7.99703 -10.99281,-19.194188 -1.068643,-11.197158 10.99281,-8.123313 10.99281,-8.123313 m 0,27.317501 c 6.27059,-0.03782 9.924167,-7.99703 10.99281,-19.194188 1.068643,-11.197158 -10.99281,-8.123313 -10.99281,-8.123313"
     fill="#3e4347"
     id="path24" />
  <ellipse
     ry="13.202734"
     rx="13"
     id="circle30"
     cy="23.402733"
     cx="32"
     style="fill:#ffce31;stroke-width:0.949346" />
  <g
     style="fill:#502d16"
     fill="#3e4347"
     id="g42"
     transform="translate(0.53556485,2.7859136)">
    <path
       d="M 27.460429,10.214086 26.503749,10.09742 C 26.610047,7.8807534 25.121878,5.0807533 22.464435,4.2640866 L 22.67703,3.2140865 c 2.870039,0.9333334 4.889696,3.9666669 4.783399,6.9999995"
       id="path34"
       style="fill:#502d16;stroke-width:1.11362" />
    <path
       d="m 22.969598,1.9468636 c 0.729775,0.8072855 0.638553,2.0630628 -0.182444,2.7806498 -0.820998,0.717587 -2.098105,0.6278886 -2.827881,-0.1793968 -0.729776,-0.8072854 -0.638554,-2.0630627 0.182444,-2.7806498 0.820998,-0.80728535 2.098105,-0.717587 2.827881,0.1793968"
       id="path36"
       style="fill:#502d16;stroke-width:0.90457" />
    <path
       style="fill:#502d16;stroke-width:1.11362"
       d="m 35.468441,10.214086 0.95668,-0.116666 C 36.318823,7.8807534 37.806992,5.0807533 40.464435,4.2640866 L 40.25184,3.2140865 c -2.870039,0.9333334 -4.889697,3.9666669 -4.783399,6.9999995"
       id="path38" />
    <path
       d="m 39.959273,1.9468636 c -0.729776,0.8072854 -0.638553,2.0630627 0.182444,2.7806498 0.820998,0.717587 2.098105,0.6278887 2.82788,-0.1793968 0.729777,-0.8072854 0.638554,-2.0630627 -0.182444,-2.7806498 -0.820997,-0.80728536 -2.098105,-0.717587 -2.82788,0.1793968"
       id="path40"
       style="fill:#502d16;stroke-width:0.90457" />
  </g>
  <path
     d="m 43,22.5 c 0,3.3 -2.2,6 -5,6 -2.8,0 -5,-2.7 -5,-6 0,-3.3 2.2,-6 5,-6 2.7,0 5,2.7 5,6"
     fill="#fcfcfa"
     id="path44"
     style="stroke-width:0.999997" />
  <path
     d="m 40.5,22.5 c 0,1.7 -1.1,3 -2.5,3 -1.4,0 -2.5,-1.3 -2.5,-3 0,-1.7 1.1,-3 2.5,-3 1.3,0 2.5,1.3 2.5,3"
     fill="#3f3438"
     id="path46"
     style="fill:#502d16;stroke-width:0.999997" />
  <path
     d="m 31,22.5 c 0,3.3 -2.2,6 -5,6 -2.8,0 -5,-2.7 -5,-6 0,-3.3 2.2,-6 5,-6 2.8,0 5,2.7 5,6"
     fill="#fcfcfa"
     id="path48"
     style="stroke-width:0.999997" />
  <path
     d="m 28.5,22.5 c 0,1.7 -1.1,3 -2.5,3 -1.4,0 -2.5,-1.3 -2.5,-3 0,-1.7 1.1,-3 2.5,-3 1.4,0 2.5,1.3 2.5,3"
     fill="#3f3438"
     id="path50"
     style="fill:#502d16;stroke-width:0.999997" />
  <path
     id="path52"
     d="M 32.054231,33.7 C 29.358641,33.7 27,32.8 27,31.9 c 0,-0.1 0,-0.2 0.112316,-0.3 0.112316,-0.1 0.224633,-0.1 0.449265,-0.1 0.224633,0 0.336949,0.1 0.673898,0.2 0.673897,0.2 1.909376,0.7 3.931068,0.7 2.021692,0 3.257171,-0.5 3.818752,-0.7 0.224633,-0.2 0.449265,-0.2 0.561581,-0.2 0.224633,0 0.449265,0.1 0.449265,0.4 0.112317,0.9 -2.246324,1.8 -4.941914,1.8"
     style="fill:#502d16;stroke-width:1.05979" />
  <path
     d="M 26.851562 52.714844 C 28.1262 55.329016 29.800035 56.985433 32 57 C 34.200286 56.98543 35.87583 55.329755 37.150391 52.714844 A 12 5 0 0 1 37.042969 52.736328 A 12 5 0 0 1 36.738281 52.792969 A 12 5 0 0 1 36.431641 52.845703 A 12 5 0 0 1 36.119141 52.896484 A 12 5 0 0 1 35.806641 52.941406 A 12 5 0 0 1 35.488281 52.984375 A 12 5 0 0 1 35.169922 53.023438 A 12 5 0 0 1 34.847656 53.056641 A 12 5 0 0 1 34.521484 53.087891 A 12 5 0 0 1 34.195312 53.115234 A 12 5 0 0 1 33.867188 53.138672 A 12 5 0 0 1 33.539062 53.158203 A 12 5 0 0 1 33.208984 53.173828 A 12 5 0 0 1 32.876953 53.1875 A 12 5 0 0 1 32.544922 53.195312 A 12 5 0 0 1 32.210938 53.199219 A 12 5 0 0 1 32 53.199219 A 12 5 0 0 1 31.667969 53.197266 A 12 5 0 0 1 31.333984 53.191406 A 12 5 0 0 1 31.001953 53.183594 A 12 5 0 0 1 30.671875 53.169922 A 12 5 0 0 1 30.341797 53.152344 A 12 5 0 0 1 30.011719 53.130859 A 12 5 0 0 1 29.685547 53.105469 A 12 5 0 0 1 29.359375 53.078125 A 12 5 0 0 1 29.035156 53.044922 A 12 5 0 0 1 28.714844 53.009766 A 12 5 0 0 1 28.394531 52.96875 A 12 5 0 0 1 28.080078 52.925781 A 12 5 0 0 1 27.765625 52.878906 A 12 5 0 0 1 27.457031 52.828125 A 12 5 0 0 1 27.150391 52.773438 A 12 5 0 0 1 26.851562 52.714844 z "
     style="fill:#ffce31;fill-opacity:1;stroke-width:0.755178"
     id="path1059" />
  <path
     d="M 25.359375 48.699219 A 13 5 0 0 0 25.361328 48.699219 A 13 5 0 0 0 25.664062 48.765625 A 13 5 0 0 0 25.970703 48.830078 A 13 5 0 0 0 26.28125 48.890625 A 13 5 0 0 0 26.595703 48.947266 A 13 5 0 0 0 26.914062 49.001953 A 13 5 0 0 0 27.236328 49.052734 A 13 5 0 0 0 27.5625 49.099609 A 13 5 0 0 0 27.892578 49.144531 A 13 5 0 0 0 28.222656 49.183594 A 13 5 0 0 0 28.558594 49.220703 A 13 5 0 0 0 28.894531 49.255859 A 13 5 0 0 0 29.234375 49.285156 A 13 5 0 0 0 29.576172 49.3125 A 13 5 0 0 0 29.919922 49.335938 A 13 5 0 0 0 30.263672 49.355469 A 13 5 0 0 0 30.609375 49.371094 A 13 5 0 0 0 30.957031 49.384766 A 13 5 0 0 0 31.302734 49.392578 A 13 5 0 0 0 31.652344 49.398438 A 13 5 0 0 0 32 49.400391 A 13 5 0 0 0 32.216797 49.398438 A 13 5 0 0 0 32.564453 49.394531 A 13 5 0 0 0 32.912109 49.386719 A 13 5 0 0 0 33.259766 49.376953 A 13 5 0 0 0 33.605469 49.361328 A 13 5 0 0 0 33.951172 49.34375 A 13 5 0 0 0 34.294922 49.322266 A 13 5 0 0 0 34.636719 49.296875 A 13 5 0 0 0 34.976562 49.267578 A 13 5 0 0 0 35.314453 49.234375 A 13 5 0 0 0 35.650391 49.199219 A 13 5 0 0 0 35.984375 49.160156 A 13 5 0 0 0 36.314453 49.117188 A 13 5 0 0 0 36.640625 49.070312 A 13 5 0 0 0 36.964844 49.021484 A 13 5 0 0 0 37.285156 48.96875 A 13 5 0 0 0 37.601562 48.912109 A 13 5 0 0 0 37.914062 48.853516 A 13 5 0 0 0 38.220703 48.791016 A 13 5 0 0 0 38.525391 48.724609 A 13 5 0 0 0 38.640625 48.697266 C 38.952656 47.506301 39.25941 46.300355 39.470703 44.927734 A 14 5 0 0 1 39.427734 44.9375 A 14 5 0 0 1 39.117188 45.005859 A 14 5 0 0 1 38.802734 45.070312 A 14 5 0 0 1 38.482422 45.130859 A 14 5 0 0 1 38.160156 45.189453 A 14 5 0 0 1 37.832031 45.246094 A 14 5 0 0 1 37.5 45.298828 A 14 5 0 0 1 37.164062 45.347656 A 14 5 0 0 1 36.824219 45.394531 A 14 5 0 0 1 36.482422 45.4375 A 14 5 0 0 1 36.136719 45.476562 A 14 5 0 0 1 35.789062 45.513672 A 14 5 0 0 1 35.4375 45.546875 A 14 5 0 0 1 35.083984 45.578125 A 14 5 0 0 1 34.728516 45.603516 A 14 5 0 0 1 34.373047 45.626953 A 14 5 0 0 1 34.013672 45.648438 A 14 5 0 0 1 33.654297 45.664062 A 14 5 0 0 1 33.292969 45.677734 A 14 5 0 0 1 32.929688 45.689453 A 14 5 0 0 1 32.568359 45.695312 A 14 5 0 0 1 32.205078 45.699219 A 14 5 0 0 1 32 45.699219 A 14 5 0 0 1 31.636719 45.699219 A 14 5 0 0 1 31.273438 45.693359 A 14 5 0 0 1 30.912109 45.685547 A 14 5 0 0 1 30.550781 45.673828 A 14 5 0 0 1 30.189453 45.658203 A 14 5 0 0 1 29.830078 45.638672 A 14 5 0 0 1 29.472656 45.617188 A 14 5 0 0 1 29.115234 45.591797 A 14 5 0 0 1 28.761719 45.564453 A 14 5 0 0 1 28.410156 45.533203 A 14 5 0 0 1 28.060547 45.498047 A 14 5 0 0 1 27.712891 45.458984 A 14 5 0 0 1 27.369141 45.417969 A 14 5 0 0 1 27.027344 45.373047 A 14 5 0 0 1 26.689453 45.326172 A 14 5 0 0 1 26.355469 45.275391 A 14 5 0 0 1 26.025391 45.222656 A 14 5 0 0 1 25.699219 45.164062 A 14 5 0 0 1 25.376953 45.105469 A 14 5 0 0 1 25.058594 45.042969 A 14 5 0 0 1 24.746094 44.976562 A 14 5 0 0 1 24.529297 44.927734 C 24.740694 46.301033 25.047139 47.507765 25.359375 48.699219 z "
     style="fill:#ffce31;fill-opacity:1;stroke-width:0.755178"
     id="path1174" />
  <path
     d="M 24.064453 41.142578 A 15 5 0 0 0 24.117188 41.154297 A 15 5 0 0 0 24.441406 41.21875 A 15 5 0 0 0 24.769531 41.28125 A 15 5 0 0 0 25.101562 41.339844 A 15 5 0 0 0 25.439453 41.396484 A 15 5 0 0 0 25.78125 41.449219 A 15 5 0 0 0 26.125 41.5 A 15 5 0 0 0 26.474609 41.548828 A 15 5 0 0 0 26.828125 41.59375 A 15 5 0 0 0 27.183594 41.634766 A 15 5 0 0 0 27.541016 41.673828 A 15 5 0 0 0 27.902344 41.708984 A 15 5 0 0 0 28.267578 41.742188 A 15 5 0 0 0 28.634766 41.773438 A 15 5 0 0 0 29.001953 41.798828 A 15 5 0 0 0 29.373047 41.822266 A 15 5 0 0 0 29.746094 41.84375 A 15 5 0 0 0 30.119141 41.861328 A 15 5 0 0 0 30.494141 41.875 A 15 5 0 0 0 30.869141 41.886719 A 15 5 0 0 0 31.246094 41.894531 A 15 5 0 0 0 31.623047 41.898438 A 15 5 0 0 0 32 41.900391 A 15 5 0 0 0 32.173828 41.900391 A 15 5 0 0 0 32.550781 41.896484 A 15 5 0 0 0 32.927734 41.890625 A 15 5 0 0 0 33.304688 41.880859 A 15 5 0 0 0 33.679688 41.869141 A 15 5 0 0 0 34.052734 41.853516 A 15 5 0 0 0 34.425781 41.833984 A 15 5 0 0 0 34.796875 41.8125 A 15 5 0 0 0 35.167969 41.787109 A 15 5 0 0 0 35.535156 41.759766 A 15 5 0 0 0 35.900391 41.728516 A 15 5 0 0 0 36.263672 41.693359 A 15 5 0 0 0 36.623047 41.65625 A 15 5 0 0 0 36.980469 41.617188 A 15 5 0 0 0 37.335938 41.572266 A 15 5 0 0 0 37.685547 41.527344 A 15 5 0 0 0 38.033203 41.478516 A 15 5 0 0 0 38.376953 41.425781 A 15 5 0 0 0 38.716797 41.371094 A 15 5 0 0 0 39.050781 41.3125 A 15 5 0 0 0 39.382812 41.251953 A 15 5 0 0 0 39.708984 41.189453 A 15 5 0 0 0 39.935547 41.142578 C 39.989391 39.529836 39.758525 38.260395 39.265625 37.375 A 15 5 0 0 1 32 38 A 15 5 0 0 1 24.734375 37.373047 C 24.240949 38.25862 24.010396 39.528754 24.064453 41.142578 z "
     style="fill:#ffce31;fill-opacity:1;stroke-width:0.755178"
     id="path1152" />
</svg>
